<?xml version="1.0" standalone="no"?>
<!DOCTYPE svg PUBLIC "-//W3C//DTD SVG 20010904//EN"
 "http://www.w3.org/TR/2001/REC-SVG-20010904/DTD/svg10.dtd">
<svg version="1.0" xmlns="http://www.w3.org/2000/svg"
 width="25.000000pt" height="25.000000pt" viewBox="0 0 25.000000 25.000000"
 preserveAspectRatio="xMidYMid meet">
<metadata>
Created by potrace 1.16, written by Peter Selinger 2001-2019
</metadata>
<g transform="translate(0.000000,25.000000) scale(0.004883,-0.004883)"
fill="#000000" stroke="none">
<path d="M2326 4944 c-102 -19 -238 -64 -344 -116 -230 -113 -447 -328 -567
-564 -93 -181 -135 -364 -135 -584 0 -357 120 -652 368 -903 104 -105 205
-179 327 -241 191 -96 364 -136 585 -136 351 0 643 117 891 357 202 196 327
429 374 699 19 112 19 336 0 448 -33 186 -112 375 -221 527 -67 92 -213 237
-305 302 -144 102 -336 181 -515 212 -109 19 -351 18 -458 -1z"/>
<path d="M1273 2529 c-431 -218 -760 -621 -892 -1092 -51 -181 -61 -282 -61
-601 0 -264 2 -292 21 -349 49 -148 159 -257 306 -306 62 -21 76 -21 1098 -21
l1035 0 -99 98 c-129 128 -209 238 -287 397 -104 212 -145 394 -145 634 1 148
16 257 56 396 27 94 105 267 156 346 16 25 29 49 29 52 0 4 -18 7 -39 7 -21 0
-91 9 -154 20 -299 51 -569 182 -809 394 l-97 85 -118 -60z"/>
<path d="M3450 2381 c-451 -100 -777 -430 -872 -881 -27 -130 -21 -374 12
-500 112 -422 437 -731 865 -821 123 -26 327 -26 450 0 317 67 573 248 741
526 171 281 203 652 84 977 -121 332 -414 594 -770 688 -122 32 -388 38 -510
11z m310 -654 c56 -37 73 -77 78 -187 l5 -97 97 -5 c73 -4 106 -10 131 -24
106 -62 106 -206 0 -268 -25 -14 -58 -20 -131 -24 l-97 -5 -5 -97 c-4 -73 -10
-106 -24 -131 -62 -106 -206 -106 -268 0 -14 25 -20 58 -24 131 l-5 97 -97 5
c-73 4 -106 10 -131 24 -106 62 -106 206 0 268 25 14 58 20 131 24 l97 5 5 97
c5 110 22 150 78 187 45 31 115 31 160 0z"/>
</g>
</svg>
