<?xml version="1.0" encoding="utf-8"?>
<svg viewBox="152.676 274.048 88.275 88.277" xmlns="http://www.w3.org/2000/svg">
  <g transform="matrix(0.006898, 0, 0, -0.006898, 152.668091, 364.403198)" fill="#000000" stroke="none" id="g16" style="">
    <path d="M3166 13084 c-244 -44 -492 -173 -680 -354 -233 -223 -386 -502 -456 -831 -28 -128 -39 -425 -21 -576 47 -403 209 -837 441 -1185 209 -314 441 -513 705 -605 74 -25 91 -27 240 -28 139 0 169 3 232 23 524 166 996 856 1150 1682 13 73 17 149 18 335 0 214 -2 252 -23 349 -72 335 -222 610 -458 836 -194 186 -436 311 -691 355 -108 19 -350 18 -457 -1z m433 -415 c328 -76 608 -349 730 -715 81 -241 83 -542 6 -848 -138 -547 -489 -1059 -803 -1173 -85 -31 -179 -31 -264 0 -294 106 -631 575 -777 1080 -57 195 -72 290 -78 482 -6 205 7 307 58 459 176 526 648 826 1128 715z" id="path4" style="fill: rgb(255, 255, 255);"/>
    <path d="M9166 13084 c-244 -44 -492 -173 -680 -354 -233 -223 -386 -502 -456 -831 -28 -128 -39 -425 -21 -576 47 -403 209 -837 441 -1185 209 -314 441 -513 705 -605 74 -25 91 -27 240 -28 139 0 169 3 232 23 524 166 996 856 1150 1682 13 73 17 149 18 335 0 214 -2 252 -23 349 -72 335 -222 610 -458 836 -194 186 -436 311 -691 355 -108 19 -350 18 -457 -1z m433 -415 c328 -76 608 -349 730 -715 81 -241 83 -542 6 -848 -138 -547 -489 -1059 -803 -1173 -85 -31 -179 -31 -264 0 -294 106 -631 575 -777 1080 -57 195 -72 290 -78 482 -6 205 7 307 58 459 176 526 648 826 1128 715z" id="path6" style="fill: rgb(255, 255, 255);"/>
    <path d="M2180 9068 c-52 -16 -219 -68 -370 -115 -589 -183 -1095 -376 -1290 -492 -37 -22 -93 -68 -124 -101 -154 -167 -277 -571 -351 -1155 -54 -424 -57 -590 -15 -680 32 -67 122 -155 195 -191 l60 -29 2004 -3 2003 -2 -6 26 c-13 52 -56 316 -56 345 l0 29 -1910 0 -1910 0 0 34 c0 127 64 607 111 833 36 177 109 402 152 475 30 50 39 57 147 110 147 74 400 171 775 297 306 104 613 201 635 201 6 0 224 -151 484 -337 259 -185 496 -348 526 -362 48 -23 68 -26 160 -26 93 0 112 3 162 27 31 14 269 178 529 364 l472 337 63 -16 c34 -10 69 -19 76 -22 9 -4 33 18 63 57 27 35 94 108 147 164 54 55 98 103 98 107 0 9 -482 157 -513 157 -10 0 -261 -173 -557 -385 l-540 -384 -539 384 c-369 264 -546 385 -562 384 -13 0 -67 -14 -119 -31z" id="path8" style="fill: rgb(255, 255, 255);"/>
    <path d="M6120 9080 c-790 -140 -1403 -863 -1511 -1784 -17 -145 -6 -528 20 -686 121 -748 462 -1466 900 -1898 197 -195 394 -317 616 -383 101 -30 331 -38 446 -15 461 93 919 542 1244 1220 164 342 275 695 336 1076 26 158 37 541 20 686 -54 461 -238 889 -520 1211 -264 302 -626 510 -996 573 -155 26 -404 26 -555 0z m461 -400 c523 -74 990 -542 1149 -1152 44 -166 60 -299 60 -495 0 -429 -115 -881 -345 -1348 -150 -305 -292 -511 -477 -691 -201 -195 -381 -286 -568 -286 -187 0 -367 91 -569 286 -370 360 -676 997 -792 1651 -27 154 -37 471 -19 624 26 222 107 479 211 666 299 540 809 821 1350 745z" id="path10" style="fill: rgb(255, 255, 255);"/>
    <path d="M8235 9085 c-22 -8 -130 -41 -239 -74 -110 -34 -202 -63 -204 -66 -3 -3 39 -51 94 -107 55 -57 121 -131 148 -165 53 -68 50 -68 140 -36 21 7 45 13 53 13 8 0 227 -151 486 -337 260 -185 497 -348 527 -362 48 -23 68 -26 160 -26 93 0 112 3 162 27 31 14 268 178 527 362 258 185 475 336 482 336 20 0 351 -104 618 -194 409 -138 678 -242 825 -319 62 -32 85 -50 107 -85 81 -128 164 -446 218 -832 22 -160 51 -434 51 -486 l0 -34 -1910 0 -1910 0 0 -29 c0 -28 -44 -298 -57 -349 l-5 -22 2003 2 2004 3 67 33 c76 37 152 113 188 189 34 69 37 198 11 453 -65 625 -169 1058 -313 1297 -102 170 -317 281 -1010 524 -277 96 -927 299 -961 299 -10 0 -261 -173 -557 -385 l-540 -384 -539 384 c-365 262 -546 385 -562 384 -13 0 -42 -7 -64 -14z" id="path12" style="fill: rgb(255, 255, 255);"/>
    <path d="M4710 3824 c-1046 -318 -1745 -575 -2041 -751 -100 -59 -197 -159 -259 -269 -183 -320 -320 -928 -396 -1748 -20 -222 -16 -360 14 -436 60 -150 211 -276 372 -310 41 -8 1056 -10 4030 -8 l3975 3 60 22 c115 44 219 130 275 228 66 117 73 213 40 555 -72 746 -193 1306 -353 1625 -99 199 -198 295 -414 403 -274 138 -843 349 -1483 550 -343 108 -692 212 -713 212 -10 0 -321 -214 -690 -476 -370 -262 -684 -486 -700 -496 l-27 -19 -699 495 c-469 333 -707 496 -722 495 -13 0 -134 -34 -269 -75z m1035 -958 c248 -175 470 -328 495 -340 38 -18 64 -21 160 -21 105 0 120 2 170 27 30 16 334 226 675 469 341 242 626 443 633 446 16 7 227 -55 627 -183 807 -258 1392 -494 1480 -596 109 -127 228 -503 305 -960 51 -304 104 -793 98 -898 -3 -61 -26 -85 -94 -100 -52 -13 -7736 -13 -7788 0 -68 15 -91 39 -94 100 -4 59 19 316 49 560 80 646 226 1167 366 1307 118 119 826 391 1783 686 l304 93 191 -135 c104 -74 393 -279 640 -455z" id="path14" style="fill: rgb(255, 255, 255);"/>
  </g>
</svg>