<?xml version="1.0" standalone="no"?>
<!DOCTYPE svg PUBLIC "-//W3C//DTD SVG 20010904//EN"
 "http://www.w3.org/TR/2001/REC-SVG-20010904/DTD/svg10.dtd">
<svg version="1.0" xmlns="http://www.w3.org/2000/svg"
 width="25.000000pt" height="25.000000pt" viewBox="0 0 25.000000 25.000000"
 preserveAspectRatio="xMidYMid meet">
<metadata>
Created by potrace 1.16, written by Peter Selinger 2001-2019
</metadata>
<g transform="translate(0.000000,25.000000) scale(0.004883,-0.004883)"
fill="#000000" stroke="none">
<path d="M2435 4791 c-295 -49 -529 -219 -655 -476 -66 -134 -90 -237 -90
-390 0 -137 15 -220 59 -330 190 -475 747 -682 1211 -450 226 113 402 343 456
593 21 101 18 290 -6 392 -76 316 -313 555 -635 641 -79 22 -265 32 -340 20z"/>
<path d="M682 4145 c-209 -46 -378 -212 -422 -416 -18 -82 -8 -249 19 -320 87
-227 308 -370 551 -356 243 13 446 176 505 404 19 72 19 222 0 292 -75 283
-364 458 -653 396z"/>
<path d="M4202 4145 c-209 -46 -378 -212 -422 -416 -18 -82 -8 -249 19 -320
87 -227 308 -370 551 -356 243 13 446 176 505 404 19 72 19 222 0 292 -75 283
-364 458 -653 396z"/>
<path d="M2415 2724 c-278 -21 -478 -84 -664 -208 -246 -163 -411 -381 -484
-636 -55 -190 -60 -244 -64 -706 -5 -473 1 -573 41 -651 30 -60 111 -137 174
-166 46 -21 59 -22 757 -30 755 -9 1282 -4 1405 13 177 24 241 65 301 192 l34
73 -1 515 c0 493 -1 519 -22 617 -12 57 -34 135 -48 175 -131 366 -445 663
-814 769 -96 28 -470 54 -615 43z"/>
<path d="M585 2713 c-223 -35 -421 -175 -513 -363 -74 -150 -72 -129 -72 -833
0 -439 3 -641 11 -667 18 -59 78 -130 139 -164 l55 -31 355 -3 355 -3 0 468
c0 497 6 580 56 775 57 228 168 436 319 601 35 37 61 69 59 71 -87 66 -173
110 -261 132 -62 16 -433 29 -503 17z"/>
<path d="M4140 2714 c-162 -28 -208 -44 -300 -103 -30 -20 -59 -39 -65 -43 -5
-4 14 -31 41 -60 129 -136 247 -333 304 -507 72 -223 91 -420 89 -951 l-1
-395 349 0 348 0 51 27 c28 15 70 48 92 73 74 84 72 63 72 764 0 603 -1 629
-21 701 -62 226 -247 411 -474 475 -45 13 -110 18 -260 20 -110 2 -211 1 -225
-1z"/>
</g>
</svg>
