<?xml version="1.0" standalone="no"?>
<!DOCTYPE svg PUBLIC "-//W3C//DTD SVG 20010904//EN"
 "http://www.w3.org/TR/2001/REC-SVG-20010904/DTD/svg10.dtd">
<svg version="1.0" xmlns="http://www.w3.org/2000/svg"
 width="24.000000pt" height="24.000000pt" viewBox="0 0 24.000000 24.000000"
 preserveAspectRatio="xMidYMid meet">
<metadata>
Created by potrace 1.16, written by Peter Selinger 2001-2019
</metadata>
<g transform="translate(0.000000,24.000000) scale(0.004990,-0.004624)"
fill="#000000" stroke="none">
<path d="M1280 2895 l0 -1425 925 0 c509 0 925 3 925 8 0 8 -103 72 -115 72
-4 0 -20 9 -36 21 -24 17 -160 98 -274 163 -155 89 -240 202 -310 416 -15 47
-32 90 -36 96 -5 6 -35 16 -66 23 -139 30 -440 116 -457 130 -43 36 -286 325
-286 340 1 41 14 45 222 66 l203 21 95 -24 c141 -34 161 -33 264 16 88 42 189
103 201 122 4 6 -50 10 -147 10 l-154 0 0 25 0 25 187 0 187 0 50 38 c71 54
125 102 119 108 -3 3 -127 5 -276 4 -266 -1 -271 0 -271 20 0 20 5 20 304 20
284 0 306 1 350 20 25 12 70 24 99 27 37 4 63 15 89 36 44 35 115 46 173 27
36 -12 38 -11 75 28 43 45 97 67 141 58 l29 -5 0 469 0 470 -1105 0 -1105 0 0
-1425z m1503 1093 c9 -11 17 -26 17 -34 0 -22 -47 -17 -64 7 -14 21 -14 21
-25 1 -9 -17 -6 -24 22 -46 63 -50 67 -55 67 -95 0 -21 -6 -44 -14 -50 -20
-17 -86 -26 -86 -13 0 6 -6 9 -13 6 -16 -6 -31 11 -41 44 -6 19 -4 22 20 22
15 0 32 -7 39 -17 14 -19 45 -11 45 11 0 8 -17 27 -37 42 -51 38 -63 53 -63
84 0 63 90 89 133 38z m320 21 c45 -24 52 -69 12 -69 -14 0 -25 4 -25 10 0 5
-8 14 -19 19 -15 9 -18 6 -17 -15 1 -18 13 -34 41 -53 45 -30 69 -86 44 -102
-8 -5 -10 -9 -5 -9 21 0 -19 -30 -49 -36 -49 -9 -95 19 -95 59 0 22 45 24 54
1 7 -18 47 -16 53 3 3 7 -6 20 -18 30 -92 73 -107 106 -64 148 26 27 54 31 88
14z m-1235 -24 c-2 -22 -7 -25 -40 -25 -34 0 -38 -3 -38 -25 0 -22 4 -25 35
-25 31 0 35 -3 35 -25 0 -22 -4 -25 -36 -25 -33 0 -35 -2 -32 -27 3 -25 7 -28
46 -31 34 -3 42 -7 42 -23 0 -18 -6 -20 -67 -17 l-68 3 -3 123 -3 122 66 0
c63 0 65 -1 63 -25z m93 3 c1 -13 1 -26 0 -30 0 -5 4 -8 10 -8 5 0 15 14 20
30 9 24 17 30 40 30 16 0 29 -2 29 -5 0 -2 -12 -29 -27 -59 l-26 -54 22 -54
c13 -29 25 -59 28 -65 3 -9 -5 -13 -24 -13 -24 0 -31 6 -43 38 -9 25 -15 31
-18 20 -2 -10 -7 -18 -12 -18 -4 0 -7 -8 -6 -17 1 -13 -8 -19 -32 -21 l-33 -3
31 62 32 62 -22 51 c-12 28 -24 57 -27 64 -3 8 5 12 26 12 25 0 31 -4 32 -22z
m263 3 c27 -30 30 -81 7 -118 -17 -27 -27 -33 -56 -33 -34 0 -35 -1 -35 -40 0
-36 -2 -40 -25 -40 l-26 0 2 125 2 125 57 0 c43 0 61 -5 74 -19z m186 -6 c0
-22 -4 -25 -40 -25 -36 0 -40 -2 -40 -25 0 -22 4 -25 35 -25 31 0 35 -3 33
-25 -2 -21 -7 -25 -35 -25 -28 0 -33 -3 -33 -24 0 -30 6 -34 53 -38 27 -1 35
-6 34 -20 -1 -15 -11 -18 -68 -18 l-68 0 0 116 c-1 64 2 120 5 125 3 5 32 9
65 9 56 0 59 -1 59 -25z m87 17 c7 -4 25 -37 42 -72 l30 -65 -6 73 -6 72 27 0
26 0 0 -125 0 -125 -26 0 c-23 0 -37 17 -34 43 0 4 -6 15 -15 23 -13 14 -20
35 -16 57 0 4 -3 7 -9 7 -9 0 -12 -27 -13 -107 0 -18 -5 -22 -23 -21 -24 2
-24 3 -24 125 0 111 2 123 18 123 9 0 22 -4 29 -8z m471 -14 c-2 -19 -10 -24
-45 -26 -38 -3 -43 -6 -43 -28 0 -21 4 -24 40 -24 36 0 40 -2 40 -25 0 -23 -4
-25 -41 -25 -38 0 -40 -1 -37 -27 3 -25 7 -28 46 -31 34 -3 42 -7 42 -23 0
-17 -7 -19 -70 -19 l-70 0 0 125 0 125 71 0 c67 0 70 -1 67 -22z m182 -438 c0
-20 -7 -20 -460 -20 -453 0 -460 0 -460 20 0 20 7 20 460 20 453 0 460 0 460
-20z m-2 -187 c2 -16 -3 -22 -20 -25 -13 -2 -220 -2 -460 0 l-438 2 0 25 0 25
458 -2 457 -3 3 -22z"/>
<path d="M511 4248 c-11 -30 -117 -355 -232 -713 -17 -55 -34 -105 -36 -112
-3 -7 13 -16 39 -23 23 -6 124 -38 223 -70 325 -107 710 -230 718 -230 4 0 7
171 7 380 l0 380 -69 0 c-181 0 -346 -114 -417 -289 -22 -54 -25 -56 -62 -59
-45 -3 -66 -22 -84 -74 -11 -31 -16 -34 -35 -27 -19 7 -23 16 -23 54 0 58 -28
114 -78 156 l-39 32 23 81 c13 45 37 119 53 166 l29 85 58 6 c70 7 114 27 147
70 l24 31 149 -48 c82 -26 186 -60 232 -75 92 -32 96 -30 90 37 l-3 37 -130
43 c-71 23 -184 59 -250 80 -66 21 -122 41 -125 44 -3 3 -9 6 -15 6 -5 1 -39
11 -75 22 -36 11 -75 23 -87 27 -18 5 -25 1 -32 -17z"/>
<path d="M601 3834 c-88 -73 22 -204 112 -134 34 27 43 70 23 109 -30 57 -85
67 -135 25z"/>
<path d="M3393 3325 c-17 -7 -36 -22 -42 -32 -9 -18 4 -23 167 -75 97 -30 206
-63 241 -73 63 -19 83 -37 62 -58 -8 -8 -46 0 -143 31 -190 59 -489 149 -516
155 -12 3 -20 1 -16 -4 3 -5 -1 -9 -9 -9 -8 0 -21 -8 -31 -19 -16 -18 -13 -20
81 -54 446 -164 463 -171 463 -189 0 -10 -7 -18 -17 -18 -19 0 -129 38 -348
120 -190 70 -252 90 -283 90 -57 -1 -128 -36 -211 -105 -149 -124 -136 -111
-113 -111 11 0 19 3 17 6 -3 5 9 11 141 70 l72 32 273 -92 c372 -125 359 -120
359 -141 0 -11 -7 -19 -17 -19 -20 0 -185 54 -418 136 -82 29 -161 55 -175 59
-19 4 -86 -22 -265 -106 -132 -61 -280 -129 -330 -151 -49 -22 -98 -47 -107
-55 -27 -24 -23 -76 8 -113 41 -48 80 -63 159 -63 60 1 92 9 225 60 85 32 187
69 225 82 l71 24 114 -39 115 -39 27 -56 26 -56 239 -51 c131 -28 256 -54 278
-58 22 -4 141 -28 265 -55 124 -27 232 -49 241 -49 34 0 -95 685 -148 783 -39
71 -101 106 -283 157 -80 22 -191 54 -247 70 -116 34 -108 34 -150 15z"/>
<path d="M430 3154 c-91 -47 -169 -89 -174 -94 -5 -5 21 -67 60 -142 37 -73
124 -243 194 -378 69 -135 130 -254 136 -264 10 -17 27 -10 215 85 112 57 241
122 286 144 l82 40 -2 250 -2 250 -148 49 c-167 55 -153 58 -188 -34 -41 -107
-36 -237 16 -347 l24 -53 -30 -29 c-34 -35 -36 -49 -9 -100 l19 -38 -23 -11
c-20 -9 -28 -6 -51 18 -38 40 -114 64 -175 56 l-48 -6 -81 159 -80 160 28 20
c40 29 74 113 68 169 l-5 43 94 47 c52 26 94 49 94 52 0 8 -102 40 -121 39 -8
0 -88 -39 -179 -85z"/>
<path d="M633 2865 c-31 -31 -35 -40 -30 -71 7 -44 23 -63 64 -80 82 -35 162
58 117 134 -36 62 -100 68 -151 17z"/>
<path d="M1830 2714 c-63 -7 -116 -13 -117 -13 -12 -3 5 -29 50 -78 28 -31 68
-74 87 -95 l35 -39 38 32 c51 42 82 122 70 181 -6 32 3 31 -163 12z"/>
<path d="M2043 2664 c-2 -61 -18 -99 -65 -156 l-38 -47 37 -10 c59 -16 334
-81 341 -81 4 0 7 19 8 43 0 23 4 49 8 58 5 12 -3 20 -39 33 -82 32 -135 92
-135 154 0 26 -4 30 -51 40 -28 7 -54 12 -57 12 -4 0 -8 -21 -9 -46z"/>
<path d="M2830 2625 l-55 -23 40 -10 c185 -48 362 -72 319 -44 -6 4 -13 13
-15 21 -6 16 -174 81 -209 80 -14 0 -50 -11 -80 -24z"/>
<path d="M2546 2521 c-15 -6 -10 -10 27 -25 68 -26 132 -87 155 -149 19 -51
21 -52 68 -60 27 -5 139 -29 249 -54 110 -24 252 -55 315 -67 111 -22 358 -76
880 -192 246 -54 290 -61 290 -46 0 5 9 51 20 103 10 51 18 95 16 96 -2 2 -81
19 -177 37 -96 19 -259 52 -364 74 -104 22 -228 48 -275 57 -91 17 -389 79
-850 175 -285 60 -319 65 -354 51z"/>
<path d="M2394 2461 c-12 -5 -24 -16 -27 -25 -5 -13 77 -289 115 -389 18 -45
82 -138 124 -181 33 -32 130 -96 267 -175 16 -9 121 -71 234 -138 113 -68 208
-123 212 -123 3 -1 44 -25 91 -55 114 -73 189 -112 232 -120 40 -8 103 12 374
117 76 30 158 60 182 68 52 16 106 73 123 128 10 34 8 60 -12 168 -28 147 -6
128 -189 165 -58 11 -188 39 -290 61 -397 86 -464 98 -480 83 -37 -34 -115
-59 -180 -58 -113 1 -338 99 -411 179 -14 16 -38 65 -54 109 -30 84 -73 138
-137 171 -37 19 -143 28 -174 15z"/>
<path d="M2845 2160 c13 -21 208 -109 266 -120 60 -12 131 -6 169 15 31 17 39
15 -190 64 -271 58 -254 55 -245 41z"/>
</g>
</svg>
