<?xml version="1.0" standalone="no"?>
<!DOCTYPE svg PUBLIC "-//W3C//DTD SVG 20010904//EN"
 "http://www.w3.org/TR/2001/REC-SVG-20010904/DTD/svg10.dtd">
<svg version="1.0" xmlns="http://www.w3.org/2000/svg"
 width="24.000000pt" height="24.000000pt" viewBox="0 0 24.000000 24.000000"
 preserveAspectRatio="xMidYMid meet">
<metadata>
Created by potrace 1.16, written by Peter Selinger 2001-2019
</metadata>
<g transform="translate(0.000000,24.000000) scale(0.004687,-0.004687)"
fill="#000000" stroke="none">
<path d="M1620 4780 c-18 -18 -20 -33 -20 -160 l0 -140 -180 0 c-167 0 -181
-1 -200 -20 -19 -19 -20 -33 -20 -340 0 -307 1 -321 20 -340 20 -20 33 -20
1020 -20 987 0 1000 0 1020 20 19 19 20 33 20 340 0 307 -1 321 -20 340 -19
19 -33 20 -200 20 l-180 0 0 140 c0 127 -2 142 -20 160 -20 20 -33 20 -620 20
-587 0 -600 0 -620 -20z m1020 -620 l0 -80 -400 0 -400 0 0 80 0 80 400 0 400
0 0 -80z"/>
<path d="M673 4465 c-100 -31 -190 -112 -241 -215 l-27 -55 0 -1715 0 -1715
29 -60 c38 -77 114 -153 191 -191 l60 -29 1058 -3 1057 -2 0 160 0 160 -995 0
c-1097 0 -1052 -3 -1074 60 -16 47 -16 3193 0 3240 17 48 56 60 194 60 l115 0
0 160 0 160 -162 -1 c-106 0 -178 -5 -205 -14z"/>
<path d="M3440 4321 l0 -161 115 0 c138 0 177 -12 194 -60 8 -23 11 -199 11
-586 l0 -554 160 0 161 0 -3 618 -3 617 -29 60 c-38 77 -114 153 -191 191 -58
28 -64 29 -237 32 l-178 4 0 -161z"/>
<path d="M1440 3360 l0 -80 -100 0 c-146 0 -140 10 -140 -240 0 -187 1 -201
20 -220 19 -19 33 -20 240 -20 l220 0 0 -80 0 -80 -240 0 -240 0 0 -80 0 -80
120 0 120 0 0 -80 0 -80 80 0 80 0 0 80 0 80 100 0 c146 0 140 -10 140 240 0
187 -1 201 -20 220 -19 19 -33 20 -240 20 l-220 0 0 80 0 80 240 0 240 0 0 80
0 80 -120 0 -120 0 0 80 0 80 -80 0 -80 0 0 -80z"/>
<path d="M2160 3360 l0 -80 560 0 560 0 0 80 0 80 -560 0 -560 0 0 -80z"/>
<path d="M2160 2880 l0 -80 320 0 320 0 0 80 0 80 -320 0 -320 0 0 -80z"/>
<path d="M3095 2781 c-22 -10 -54 -34 -72 -52 -67 -71 -63 2 -63 -1171 0
-1014 1 -1065 19 -1103 10 -22 34 -54 52 -72 69 -66 37 -63 809 -63 772 0 740
-3 809 63 18 18 42 50 52 72 18 38 19 89 19 1103 0 1173 4 1100 -63 1171 -71
74 -29 71 -817 71 -666 0 -707 -1 -745 -19z m1409 -155 c23 -9 37 -24 45 -46
16 -47 16 -1993 0 -2040 -22 -61 -12 -60 -709 -60 -697 0 -687 -1 -709 60 -16
47 -16 1993 0 2040 21 60 10 59 707 60 519 0 639 -3 666 -14z"/>
<path d="M3380 2460 c-19 -19 -20 -33 -20 -260 0 -227 1 -241 20 -260 19 -19
33 -20 460 -20 427 0 441 1 460 20 19 19 20 33 20 260 0 227 -1 241 -20 260
-19 19 -33 20 -460 20 -427 0 -441 -1 -460 -20z"/>
<path d="M3440 1680 l0 -80 -80 0 -80 0 0 -80 0 -80 80 0 80 0 0 -80 0 -80 80
0 80 0 0 80 0 80 80 0 80 0 0 80 0 80 -80 0 -80 0 0 80 0 80 -80 0 -80 0 0
-80z"/>
<path d="M4000 1520 l0 -80 200 0 200 0 0 80 0 80 -200 0 -200 0 0 -80z"/>
<path d="M4000 1040 l0 -80 200 0 200 0 0 80 0 80 -200 0 -200 0 0 -80z"/>
<path d="M3345 1050 l-59 -60 54 -55 54 -55 -54 -55 -55 -55 63 -62 62 -63 55
55 55 54 55 -54 55 -55 62 63 63 62 -55 55 -54 55 54 55 55 55 -63 62 -62 63
-55 -55 -55 -54 -53 52 c-29 29 -55 52 -58 52 -2 0 -31 -27 -64 -60z"/>
<path d="M4000 720 l0 -80 200 0 200 0 0 80 0 80 -200 0 -200 0 0 -80z"/>
<path d="M2160 2400 l0 -80 320 0 320 0 0 80 0 80 -320 0 -320 0 0 -80z"/>
<path d="M1220 1980 c-19 -19 -20 -33 -20 -300 0 -267 1 -281 20 -300 19 -19
33 -20 300 -20 267 0 281 1 300 20 19 19 20 33 20 300 0 267 -1 281 -20 300
-19 19 -33 20 -300 20 -267 0 -281 -1 -300 -20z"/>
<path d="M2160 1920 l0 -80 320 0 320 0 0 80 0 80 -320 0 -320 0 0 -80z"/>
<path d="M2160 1440 l0 -80 320 0 320 0 0 80 0 80 -320 0 -320 0 0 -80z"/>
</g>
</svg>
