<?xml version="1.0" encoding="UTF-8" standalone="no"?>
<svg
   xmlns:dc="http://purl.org/dc/elements/1.1/"
   xmlns:cc="http://creativecommons.org/ns#"
   xmlns:rdf="http://www.w3.org/1999/02/22-rdf-syntax-ns#"
   xmlns:svg="http://www.w3.org/2000/svg"
   xmlns="http://www.w3.org/2000/svg"
   id="svg14"
   preserveAspectRatio="xMidYMid meet"
   viewBox="0 0 1280.000000 1024.000000"
   height="1024.000000pt"
   width="1280.000000pt"
   version="1.0">
  <defs
     id="defs18" />
  <metadata
     id="metadata2">
Created by potrace 1.16, written by Peter Selinger 2001-2019
<rdf:RDF>
  <cc:Work
     rdf:about="">
    <dc:format>image/svg+xml</dc:format>
    <dc:type
       rdf:resource="http://purl.org/dc/dcmitype/StillImage" />
  </cc:Work>
</rdf:RDF>
</metadata>
  <g
     id="g12"
     stroke="none"
     fill="#000000"
     transform="translate(0.000000,1024.000000) scale(0.100000,-0.100000)">
    <path
       id="path4"
       d="M5082 10150 c-366 -96 -571 -491 -437 -845 14 -37 25 -71 25 -75 0 -5 -24 -11 -52 -15 -86 -12 -343 -80 -487 -130 -1245 -428 -2304 -1525 -2760 -2858 -138 -406 -221 -857 -221 -1214 l0 -103 3397 0 3396 0 -6 258 c-25 982 -196 1621 -589 2206 -256 380 -580 729 -1278 1375 -352 326 -355 329 -348 336 9 9 519 -250 737 -375 841 -480 1359 -980 1682 -1623 267 -531 403 -1152 426 -1944 l6 -233 390 0 390 0 -7 148 c-19 405 -86 763 -216 1152 -324 971 -997 1853 -1845 2417 -175 116 -294 184 -498 283 -283 137 -541 227 -832 289 -71 16 -129 32 -128 37 1 5 14 43 29 84 35 98 44 251 20 355 -29 121 -79 209 -175 306 -93 93 -180 145 -296 174 -82 21 -232 19 -323 -5z" />
    <path
       id="path6"
       d="M510 4280 l0 -390 4805 0 4805 0 0 390 0 390 -4805 0 -4805 0 0 -390z" />
    <path
       id="path8"
       d="M6424 3493 c-116 -77 -165 -156 -172 -278 -4 -75 -2 -84 30 -144 18 -35 40 -68 48 -72 8 -5 445 -122 970 -260 525 -138 959 -255 964 -259 14 -14 -42 -58 -103 -81 -256 -96 -1009 -159 -1911 -159 l-306 0 -1129 461 c-1111 454 -1131 462 -1200 462 -168 2 -288 -118 -287 -285 0 -129 -122 -38 1390 -1035 l1353 -893 1747 0 1747 0 99 -195 c55 -107 103 -192 107 -188 7 9 569 2352 569 2376 0 9 -8 18 -17 21 -10 3 -328 100 -708 215 l-690 210 -590 31 c-324 16 -851 44 -1170 60 -319 16 -607 32 -641 34 -53 4 -66 2 -100 -21z" />
    <path
       id="path10"
       d="M10567 1722 c-148 -614 -301 -1253 -341 -1419 l-73 -303 1069 0 1068 0 0 1309 0 1309 -27 6 c-30 6 -1410 216 -1421 216 -4 0 -128 -503 -275 -1118z" />
  </g>
</svg>
