<?xml version="1.0" encoding="utf-8"?>
<svg viewBox="272.101 212.352 17.998 23.368" xmlns="http://www.w3.org/2000/svg">
  <path d="M 273.071 214.792 C 272.823 214.886 272.542 215.102 272.378 215.322 C 272.082 215.725 272.101 215.003 272.101 225.226 L 272.101 234.543 L 272.2 234.806 C 272.331 235.153 272.668 235.49 273.015 235.621 C 273.278 235.72 273.282 235.72 281.1 235.72 C 288.918 235.72 288.923 235.72 289.185 235.621 C 289.532 235.49 289.87 235.153 290.001 234.806 L 290.099 234.543 L 290.099 225.221 L 290.099 215.899 L 290.001 215.636 C 289.87 215.289 289.532 214.952 289.185 214.821 C 288.956 214.731 288.82 214.722 288.018 214.722 L 287.109 214.722 L 287.085 216.02 C 287.071 217.08 287.048 217.37 286.982 217.581 C 286.757 218.303 286.167 218.889 285.436 219.114 C 285.173 219.194 284.906 219.198 281.1 219.198 C 277.299 219.198 277.027 219.194 276.765 219.114 C 276.221 218.945 275.743 218.575 275.452 218.097 C 275.162 217.619 275.138 217.464 275.115 216.02 L 275.091 214.722 L 274.168 214.727 C 273.503 214.727 273.198 214.746 273.071 214.792 Z M 280.716 220.862 C 281.006 221.04 281.147 221.481 281.002 221.767 C 280.927 221.912 277.824 225.024 277.669 225.109 C 277.519 225.188 277.196 225.193 277.055 225.123 C 276.91 225.048 275.293 223.44 275.213 223.29 C 275.054 222.985 275.181 222.549 275.485 222.362 C 275.659 222.259 275.982 222.235 276.146 222.32 C 276.202 222.348 276.498 222.62 276.802 222.915 L 277.351 223.463 L 278.654 222.17 C 279.366 221.457 279.994 220.848 280.046 220.82 C 280.2 220.74 280.547 220.759 280.716 220.862 Z M 286.678 222.343 C 287.179 222.638 287.179 223.304 286.678 223.599 C 286.518 223.693 286.443 223.698 284.85 223.698 C 283.256 223.698 283.181 223.693 283.022 223.599 C 282.431 223.257 282.558 222.428 283.223 222.263 C 283.303 222.245 284.081 222.231 284.944 222.235 C 286.434 222.245 286.523 222.249 286.678 222.343 Z M 280.716 226.861 C 281.006 227.04 281.147 227.48 281.002 227.766 C 280.927 227.911 277.824 231.023 277.669 231.108 C 277.519 231.188 277.196 231.192 277.055 231.122 C 276.91 231.047 275.293 229.439 275.213 229.289 C 275.054 228.985 275.181 228.549 275.485 228.361 C 275.659 228.258 275.982 228.235 276.146 228.319 C 276.202 228.347 276.498 228.619 276.802 228.914 L 277.351 229.463 L 278.654 228.169 C 279.366 227.457 279.994 226.847 280.046 226.819 C 280.2 226.74 280.547 226.758 280.716 226.861 Z M 286.678 228.343 C 287.179 228.638 287.179 229.303 286.678 229.599 C 286.518 229.692 286.443 229.697 284.85 229.697 C 283.256 229.697 283.181 229.692 283.022 229.599 C 282.431 229.256 282.558 228.427 283.223 228.263 C 283.303 228.244 284.081 228.23 284.944 228.235 C 286.434 228.244 286.523 228.249 286.678 228.343 Z" style="fill: rgb(251, 246, 246);"/>
  <path d="M 280.194 212.452 C 279.627 212.649 279.125 213.085 278.886 213.596 L 278.76 213.853 L 277.836 213.853 C 276.801 213.853 276.702 213.882 276.51 214.191 C 276.421 214.336 276.416 214.43 276.416 216.103 C 276.416 217.776 276.421 217.87 276.51 218.016 C 276.562 218.1 276.669 218.208 276.754 218.259 C 276.904 218.348 276.997 218.353 280.916 218.353 C 284.834 218.353 284.928 218.348 285.078 218.259 C 285.162 218.208 285.27 218.1 285.322 218.016 C 285.411 217.87 285.415 217.776 285.415 216.103 C 285.415 214.43 285.411 214.336 285.322 214.191 C 285.129 213.882 285.031 213.853 283.995 213.853 L 283.072 213.853 L 282.945 213.596 C 282.701 213.08 282.2 212.644 281.628 212.452 C 281.234 212.316 280.578 212.321 280.194 212.452 Z" style="fill: rgb(241, 241, 241);"/>
</svg>