<?xml version="1.0" encoding="utf-8"?>
<svg viewBox="227.175 290.972 19.142 25.003" xmlns="http://www.w3.org/2000/svg">
  <g transform="matrix(0.004883, 0, 0, -0.004883, 224.245407, 315.973969)" fill="#000000" stroke="none">
    <path d="M1845 5101 c-22 -10 -144 -111 -272 -225 -127 -114 -235 -207 -240 -206 -4 1 -84 70 -178 152 -93 83 -188 159 -210 169 -92 43 -231 11 -290 -66 -59 -78 -55 84 -55 -2365 0 -2449 -4 -2287 55 -2365 59 -77 198 -109 290 -66 22 10 118 87 214 172 95 85 175 154 176 154 2 0 108 -94 236 -209 129 -115 252 -217 274 -227 56 -26 156 -25 209 1 23 11 144 112 270 225 125 113 232 205 236 205 4 0 109 -91 234 -203 125 -111 245 -212 268 -225 53 -28 154 -30 213 -3 32 14 275 223 480 412 l30 27 175 -155 c96 -86 193 -164 215 -174 92 -43 231 -11 290 66 59 78 55 -84 55 2366 0 2086 -1 2252 -17 2291 -40 102 -121 158 -227 158 -38 0 -76 -8 -101 -19 -22 -10 -117 -87 -212 -170 -94 -84 -175 -153 -178 -153 -4 0 -111 94 -238 208 -128 114 -250 215 -272 225 -56 26 -156 25 -209 -1 -23 -11 -144 -112 -270 -225 -125 -113 -232 -205 -236 -205 -4 0 -109 91 -234 203 -125 111 -245 212 -268 225 -53 28 -154 30 -213 3z m346 -447 c125 -111 242 -210 260 -220 47 -26 171 -26 217 -1 19 10 140 113 269 228 l235 210 22 -19 c11 -11 120 -108 241 -216 233 -208 262 -226 354 -226 75 0 134 37 311 195 l165 147 3 -1096 c1 -603 1 -1589 0 -2191 l-3 -1095 -165 146 c-195 173 -241 199 -334 192 -34 -3 -75 -12 -91 -21 -23 -12 -294 -247 -481 -419 l-22 -19 -235 210 c-129 115 -250 218 -269 228 -46 25 -170 25 -216 0 -19 -10 -140 -113 -269 -228 l-235 -210 -22 19 c-187 172 -458 407 -481 419 -16 9 -57 18 -91 21 -94 7 -139 -19 -334 -193 l-165 -147 -3 1096 c-1 603 -1 1589 0 2191 l3 1095 165 -146 c177 -157 236 -194 311 -194 93 0 120 17 374 244 132 118 244 212 250 208 5 -3 112 -97 236 -208z" style="fill: rgb(255, 255, 255);"/>
    <path d="M1359 3385 c-28 -15 -59 -70 -59 -104 0 -37 26 -86 56 -106 28 -19 50 -20 664 -20 607 0 636 1 663 19 74 50 75 162 3 210 -23 14 -87 16 -663 16 -532 -1 -642 -3 -664 -15z" style="fill: rgb(251, 244, 244);"/>
    <path d="M1342 2652 c-55 -52 -51 -150 8 -192 28 -20 41 -20 1210 -20 1176 0 1182 0 1211 21 61 43 61 155 0 198 -29 21 -35 21 -1214 21 l-1185 0 -30 -28z" style="fill: rgb(250, 243, 243);"/>
    <path d="M1401 1963 c-56 -11 -101 -66 -101 -124 0 -35 31 -89 61 -104 42 -22 2356 -22 2398 0 30 15 61 69 61 104 0 37 -26 86 -56 106 -28 20 -56 20 -1184 21 -635 1 -1166 -1 -1179 -3z" style="fill: rgb(250, 244, 244);"/>
  </g>
</svg>