<?xml version="1.0" encoding="utf-8"?>
<svg viewBox="135.078 225.675 18.761 22.061" xmlns="http://www.w3.org/2000/svg">
  <path id="path4" d="M 3026.707 9944.552 C 2959.911 9934.301 2891.445 9897.241 2840.68 9843.227 C 2800.936 9801.435 2764.198 9732.44 2748.501 9670.935 C 2742.823 9648.462 2742.489 9576.312 2741.488 8105.718 C 2740.82 6704.908 2741.153 6561.396 2746.163 6532.615 C 2764.866 6421.039 2838.342 6318.532 2934.194 6270.432 C 2971.266 6251.507 2995.647 6244.016 3034.723 6238.891 C 3056.765 6235.737 3344.323 6234.948 3984.898 6235.737 L 4903.347 6236.92 L 4930.064 6245.593 C 5030.593 6278.711 5104.069 6369.392 5132.791 6495.555 L 5140.473 6528.673 L 5141.14 7707.908 L 5142.142 8887.538 L 4670.895 9415.059 C 4411.726 9705.63 4196.976 9944.158 4193.971 9945.735 C 4185.955 9949.677 3053.426 9948.495 3026.707 9944.552 Z M 4093.442 9414.271 C 4093.442 9036.174 4094.11 8983.343 4098.786 8961.659 C 4114.483 8889.509 4166.918 8820.513 4232.379 8785.424 C 4281.14 8759.403 4257.093 8760.586 4673.901 8759.403 L 5051.968 8757.826 L 5051.299 7651.135 C 5050.297 6407.635 5052.969 6531.827 5024.915 6464.014 C 5001.87 6408.423 4961.793 6368.997 4909.691 6350.467 C 4890.989 6343.764 4841.226 6343.37 3983.229 6342.188 C 3364.028 6341.399 3066.785 6342.188 3045.745 6345.341 C 2950.893 6357.958 2869.403 6431.685 2840.346 6530.644 L 2832.664 6556.271 L 2832.664 8091.919 L 2832.664 9627.566 L 2840.346 9653.193 C 2862.389 9728.891 2915.826 9790.79 2985.293 9821.543 C 3001.325 9828.639 3024.369 9836.13 3037.061 9838.102 C 3049.418 9840.073 3292.222 9841.65 3576.774 9842.044 L 4093.442 9842.438 L 4093.442 9414.271 Z M 4614.453 9327.928 C 4832.207 9092.16 5016.899 8891.48 5025.248 8882.018 L 5040.279 8864.671 L 4674.569 8865.459 L 4308.86 8866.642 L 4286.817 8875.71 C 4245.404 8892.269 4212.34 8924.598 4193.303 8967.179 L 4185.287 8984.92 L 4184.285 9391.009 L 4183.617 9797.098 L 4200.984 9776.991 C 4210.67 9765.952 4396.697 9563.696 4614.453 9327.928 Z" style="fill: rgb(242, 235, 235);" transform="matrix(0.007814, 0, 0, -0.005942, 113.657684, 284.786987)"/>
  <path id="path6" d="M 3219.414 9424.522 C 3190.692 9404.02 3192.028 9350.4 3221.752 9333.053 C 3232.44 9326.351 3253.147 9325.956 3504.968 9325.956 C 3807.889 9325.956 3791.857 9324.379 3805.551 9353.16 C 3809.559 9361.44 3812.898 9373.662 3812.898 9379.97 C 3812.898 9396.529 3802.211 9417.03 3789.186 9425.31 C 3778.499 9432.013 3762.802 9432.407 3503.966 9432.407 C 3238.117 9432.407 3229.767 9432.013 3219.414 9424.522 Z" style="fill: rgb(253, 247, 247);" transform="matrix(0.007814, 0, 0, -0.005942, 113.657684, 284.786987)"/>
  <path id="path8" d="M 3217.076 8907.645 C 3187.352 8880.047 3195.702 8825.245 3231.438 8813.417 C 3248.137 8807.897 3763.469 8808.291 3780.168 8813.417 C 3814.234 8824.85 3823.252 8880.441 3794.864 8906.068 L 3783.842 8915.924 L 3504.968 8915.924 C 3227.095 8915.924 3226.093 8915.924 3217.076 8907.645 Z" style="fill: rgb(251, 249, 249);" transform="matrix(0.007814, 0, 0, -0.005942, 113.657684, 284.786987)"/>
  <path id="path10" d="M 4249.078 8434.532 C 4222.025 8409.693 4225.031 8359.228 4254.087 8343.458 C 4262.437 8339.12 4297.504 8335.178 4389.015 8328.475 C 4457.147 8323.744 4518.933 8318.619 4526.281 8317.436 L 4540.309 8314.676 L 4336.247 8125.431 C 4224.029 8021.346 4111.143 7916.473 4084.759 7892.028 L 4037.333 7848.265 L 3858.653 8032.779 C 3734.413 8161.309 3676.968 8218.082 3669.62 8220.054 C 3663.943 8221.63 3654.592 8221.63 3649.248 8220.054 C 3636.222 8216.505 3233.775 7763.893 3222.754 7739.843 C 3218.412 7731.17 3215.073 7719.342 3215.073 7714.216 C 3215.073 7698.446 3228.098 7670.453 3238.786 7664.145 C 3251.811 7655.866 3271.515 7656.654 3283.538 7665.722 C 3289.216 7669.665 3376.385 7767.442 3477.247 7882.566 C 3578.444 7997.69 3661.605 8091.919 3662.607 8091.919 C 3663.609 8091.919 3741.76 8011.883 3836.277 7914.107 C 3930.794 7816.33 4013.287 7733.535 4019.632 7730.381 C 4046.685 7716.582 4034.995 7707.12 4335.578 7983.891 C 4487.54 8123.46 4612.782 8237.401 4613.451 8236.218 C 4614.453 8235.43 4610.111 8165.251 4604.433 8080.485 C 4598.422 7996.113 4594.748 7920.415 4595.75 7912.924 C 4599.089 7892.028 4617.459 7875.075 4636.829 7875.075 C 4655.866 7875.075 4671.897 7886.114 4679.245 7904.25 C 4683.252 7914.107 4687.928 7971.669 4698.282 8143.567 C 4711.974 8366.719 4711.974 8369.873 4705.963 8383.277 C 4692.27 8412.453 4701.956 8410.481 4490.545 8427.435 C 4262.437 8445.571 4261.101 8445.571 4249.078 8434.532 Z" style="fill: rgb(248, 240, 240);" transform="matrix(0.007814, 0, 0, -0.005942, 113.657684, 284.786987)"/>
  <path id="path12" d="M 4329.233 7623.142 C 4323.889 7618.805 4317.543 7611.314 4315.205 7606.189 C 4311.531 7599.092 4310.864 7509.2 4310.529 7166.193 C 4310.529 6693.08 4309.528 6719.101 4330.568 6706.09 C 4338.918 6700.965 4362.63 6700.177 4488.542 6700.177 C 4633.823 6700.177 4637.163 6700.177 4645.847 6708.456 C 4650.523 6712.793 4656.2 6719.89 4657.87 6723.832 C 4662.88 6734.477 4662.546 7596.726 4657.87 7607.372 C 4655.866 7611.709 4649.186 7618.805 4643.509 7622.748 C 4633.489 7630.239 4625.474 7630.633 4485.87 7630.633 C 4346.266 7630.633 4338.585 7630.239 4329.233 7623.142 Z M 4571.035 7165.405 L 4571.035 6806.627 L 4485.87 6806.627 L 4400.705 6806.627 L 4400.705 7165.405 L 4400.705 7524.183 L 4485.87 7524.183 L 4571.035 7524.183 L 4571.035 7165.405 Z" style="fill: rgb(251, 246, 246);" transform="matrix(0.007814, 0, 0, -0.005942, 113.657684, 284.786987)"/>
  <path id="path14" d="M 3809.559 7367.266 C 3785.178 7353.073 3786.18 7368.055 3786.18 7036.087 C 3786.18 6708.85 3785.512 6718.707 3806.552 6706.09 C 3820.579 6697.417 4105.8 6697.417 4119.826 6706.09 C 4140.868 6718.707 4140.2 6708.85 4140.2 7038.058 C 4140.2 7330.994 4140.2 7337.303 4133.52 7349.919 C 4121.163 7373.969 4118.49 7374.363 3962.522 7374.363 C 3834.607 7374.363 3820.246 7373.575 3809.559 7367.266 Z M 4050.025 7037.27 L 4050.025 6806.627 L 3963.19 6806.627 L 3876.355 6806.627 L 3876.355 7037.27 L 3876.355 7267.913 L 3963.19 7267.913 L 4050.025 7267.913 L 4050.025 7037.27 Z" style="fill: rgb(244, 240, 240);" transform="matrix(0.007814, 0, 0, -0.005942, 113.657684, 284.786987)"/>
  <path id="path16" d="M 3280.533 7105.871 C 3275.857 7101.534 3270.179 7094.438 3268.175 7090.101 C 3263.5 7079.85 3263.834 6734.477 3268.51 6724.226 C 3270.179 6719.89 3275.857 6712.793 3280.533 6708.456 C 3289.216 6700.177 3292.556 6700.177 3437.838 6700.177 C 3600.486 6700.177 3600.486 6700.177 3610.839 6723.832 C 3618.187 6740.786 3618.521 7073.147 3610.839 7090.495 C 3600.152 7114.939 3605.496 7114.151 3440.176 7114.151 C 3292.556 7114.151 3289.216 7114.151 3280.533 7105.871 Z M 3525.675 6907.164 L 3525.675 6806.627 L 3440.509 6806.627 L 3355.344 6806.627 L 3355.344 6907.164 L 3355.344 7007.7 L 3440.509 7007.7 L 3525.675 7007.7 L 3525.675 6907.164 Z" style="fill: rgb(245, 242, 242);" transform="matrix(0.007814, 0, 0, -0.005942, 113.657684, 284.786987)"/>
</svg>