<?xml version="1.0" encoding="UTF-8" standalone="no"?>
<svg
   xmlns:dc="http://purl.org/dc/elements/1.1/"
   xmlns:cc="http://creativecommons.org/ns#"
   xmlns:rdf="http://www.w3.org/1999/02/22-rdf-syntax-ns#"
   xmlns:svg="http://www.w3.org/2000/svg"
   xmlns="http://www.w3.org/2000/svg"
   id="svg20"
   preserveAspectRatio="xMidYMid meet"
   viewBox="0 0 1280.000000 1024.000000"
   height="1024.000000pt"
   width="1280.000000pt"
   version="1.0">
  <defs
     id="defs24" />
  <metadata
     id="metadata2">
Created by potrace 1.16, written by Peter Selinger 2001-2019
<rdf:RDF>
  <cc:Work
     rdf:about="">
    <dc:format>image/svg+xml</dc:format>
    <dc:type
       rdf:resource="http://purl.org/dc/dcmitype/StillImage" />
  </cc:Work>
</rdf:RDF>
</metadata>
  <g
     id="g18"
     stroke="none"
     fill="#000000"
     transform="translate(0.000000,1024.000000) scale(0.100000,-0.100000)">
    <path
       id="path4"
       d="M3596 9939 c-200 -26 -405 -120 -557 -257 -119 -106 -229 -281 -276 -437 -17 -57 -18 -240 -21 -3970 -2 -3553 -1 -3917 14 -3990 56 -283 276 -543 563 -665 111 -48 184 -67 301 -80 66 -8 927 -10 2845 -8 l2750 3 80 22 c301 84 521 314 607 634 l23 84 2 2991 3 2992 -1411 1338 c-776 737 -1419 1342 -1428 1346 -24 10 -3415 7 -3495 -3z m3194 -1345 c0 -959 2 -1093 16 -1148 47 -183 204 -358 400 -447 146 -66 74 -63 1322 -66 l1132 -4 -2 -2807 c-3 -3154 5 -2839 -79 -3011 -69 -141 -189 -241 -345 -288 -56 -17 -205 -18 -2774 -21 -1854 -2 -2744 0 -2807 8 -284 32 -528 219 -615 470 l-23 65 0 3895 0 3895 23 65 c66 192 226 349 434 427 48 18 117 37 155 42 37 5 764 9 1616 10 l1547 1 0 -1086z m1560 -219 c652 -598 1205 -1107 1230 -1131 l45 -44 -1095 2 -1095 3 -66 23 c-124 42 -223 124 -280 232 l-24 45 -3 1030 -2 1030 52 -51 c29 -28 586 -541 1238 -1139z" />
    <path
       id="path6"
       d="M4173 8620 c-86 -52 -82 -188 7 -232 32 -17 94 -18 848 -18 907 0 859 -4 900 69 12 21 22 52 22 68 0 42 -32 94 -71 115 -32 17 -79 18 -854 18 -796 0 -821 -1 -852 -20z" />
    <path
       id="path8"
       d="M4166 7309 c-89 -70 -64 -209 43 -239 50 -14 1593 -13 1643 0 102 29 129 170 44 235 l-33 25 -835 0 c-832 0 -835 0 -862 -21z" />
    <path
       id="path10"
       d="M7256 6109 c-81 -63 -72 -191 15 -231 25 -11 130 -21 404 -38 204 -12 389 -25 411 -28 l42 -7 -611 -480 c-336 -264 -674 -530 -753 -592 l-142 -111 -535 468 c-372 326 -544 470 -566 475 -17 4 -45 4 -61 0 -39 -9 -1244 -1157 -1277 -1218 -13 -22 -23 -52 -23 -65 0 -40 39 -111 71 -127 39 -21 98 -19 134 4 17 10 278 258 580 550 303 292 552 531 555 531 3 0 237 -203 520 -451 283 -248 530 -458 549 -466 81 -35 46 -59 946 643 455 354 830 643 832 640 3 -2 -10 -180 -27 -395 -18 -214 -29 -406 -26 -425 10 -53 65 -96 123 -96 57 0 105 28 127 74 12 25 26 171 57 607 41 566 41 574 23 608 -41 74 -12 69 -645 112 -683 46 -687 46 -723 18z" />
    <path
       id="path12"
       d="M7496 4051 c-16 -11 -35 -30 -42 -43 -11 -18 -13 -246 -14 -1116 0 -1200 -3 -1134 60 -1167 25 -13 96 -15 473 -15 435 0 445 0 471 21 14 11 31 29 36 39 15 27 14 2214 0 2241 -6 11 -26 29 -43 39 -30 19 -54 20 -472 20 -418 0 -441 -1 -469 -19z m724 -1161 l0 -910 -255 0 -255 0 0 910 0 910 255 0 255 0 0 -910z" />
    <path
       id="path14"
       d="M5940 3402 c-73 -36 -70 2 -70 -840 0 -830 -2 -805 61 -837 42 -22 896 -22 938 0 63 32 61 7 61 842 0 743 0 759 -20 791 -37 61 -45 62 -512 62 -383 0 -426 -2 -458 -18z m720 -837 l0 -585 -260 0 -260 0 0 585 0 585 260 0 260 0 0 -585z" />
    <path
       id="path16"
       d="M4356 2739 c-14 -11 -31 -29 -37 -40 -14 -26 -13 -902 1 -928 5 -11 22 -29 36 -40 26 -21 36 -21 471 -21 487 0 487 0 518 60 22 43 23 886 0 930 -32 62 -16 60 -511 60 -442 0 -452 0 -478 -21z m734 -504 l0 -255 -255 0 -255 0 0 255 0 255 255 0 255 0 0 -255z" />
  </g>
</svg>
