<?xml version="1.0" encoding="utf-8"?>
<svg viewBox="161.021 387.374 39.955 58.611" xmlns="http://www.w3.org/2000/svg">
  <g transform="matrix(0.005081, 0, 0, -0.005081, 148.496292, 447.414185)" fill="#000000" stroke="none" id="g14" style="">
    <path d="M6125 11814 c-222 -23 -369 -53 -522 -105 -405 -140 -650 -368 -738 -685 -2 -6 -34 -13 -72 -16 -150 -11 -272 -117 -380 -332 -127 -253 -191 -604 -164 -913 12 -150 45 -311 84 -413 l24 -65 -71 -2 c-103 -2 -177 -33 -247 -102 -132 -133 -181 -342 -145 -617 29 -218 135 -744 162 -804 47 -104 134 -168 268 -199 l69 -16 37 -115 c163 -507 453 -954 814 -1255 85 -71 258 -186 349 -232 504 -254 1082 -256 1582 -6 530 264 967 815 1198 1507 l33 100 71 17 c92 23 139 47 193 101 73 72 96 137 150 422 68 354 83 467 83 641 1 112 -3 166 -16 215 -59 222 -187 339 -373 343 l-70 2 4 256 c7 415 -31 674 -145 979 -258 691 -876 1162 -1673 1275 -111 16 -423 27 -505 19z m-1015 -1767 c96 -105 365 -287 424 -287 19 0 19 -2 0 51 -25 72 -44 186 -43 267 0 75 0 77 17 53 165 -238 542 -440 1057 -565 145 -35 456 -89 464 -80 5 5 15 -2 -114 85 -199 133 -355 310 -416 468 l-19 52 102 -69 c57 -38 243 -156 413 -262 481 -299 624 -401 794 -565 211 -204 349 -445 406 -710 23 -111 24 -114 35 -94 5 9 30 142 55 294 25 153 52 293 60 311 11 26 22 35 57 44 97 27 181 -8 222 -93 58 -118 58 -242 0 -563 -19 -109 -46 -261 -59 -337 -13 -75 -32 -153 -41 -172 -34 -72 -118 -104 -230 -86 -38 6 -71 7 -75 3 -4 -4 -14 -41 -24 -82 -26 -111 -96 -321 -145 -435 -275 -647 -750 -1102 -1295 -1240 -147 -38 -254 -48 -420 -42 -290 11 -539 96 -806 276 -434 292 -778 824 -920 1421 -12 52 -25 98 -28 102 -4 4 -37 3 -75 -3 -112 -18 -196 14 -230 86 -9 19 -28 97 -41 172 -13 76 -40 228 -60 338 -61 337 -58 499 9 588 54 71 129 94 216 64 47 -16 58 -42 82 -209 19 -136 32 -179 42 -147 2 8 14 64 26 124 49 251 111 455 285 925 62 168 116 316 120 330 4 14 16 49 27 78 l20 53 27 -43 c15 -24 51 -69 81 -101z" id="path4" style="fill: rgb(255, 255, 255);"/>
    <path d="M4820 5820 c-315 -60 -559 -138 -797 -254 -270 -132 -486 -283 -695 -484 -462 -446 -747 -1000 -846 -1645 -15 -97 -17 -196 -17 -727 0 -429 4 -657 13 -755 60 -642 203 -1030 481 -1305 174 -173 403 -284 705 -342 l111 -22 2530 -4 c1805 -2 2566 0 2655 8 386 34 663 151 885 375 254 255 398 632 454 1192 36 354 40 1302 7 1549 -59 448 -208 850 -448 1209 -391 588 -934 970 -1633 1148 -116 30 -395 87 -424 87 -5 0 -131 -166 -280 -370 l-271 -369 2 -203 3 -203 64 83 c35 45 66 81 67 79 2 -2 -206 -966 -461 -2143 -256 -1176 -468 -2151 -471 -2167 -5 -25 -9 -27 -54 -27 -45 0 -49 2 -54 28 -3 15 -215 990 -471 2166 -255 1177 -463 2141 -461 2143 1 2 32 -34 67 -79 l64 -83 3 203 2 203 -271 369 c-215 293 -276 370 -293 369 -11 -1 -86 -14 -166 -29z m-950 -795 c83 -264 151 -543 194 -805 48 -287 60 -442 60 -770 0 -473 -26 -695 -189 -1585 -99 -545 -137 -825 -154 -1143 -5 -90 -11 -165 -14 -169 -9 -8 -156 24 -244 53 -421 141 -672 484 -767 1049 -44 261 -57 616 -46 1220 11 548 27 674 130 985 140 427 366 774 709 1093 98 91 264 218 272 209 4 -4 26 -65 49 -137z m5260 31 c101 -81 300 -281 384 -386 299 -374 480 -790 554 -1273 15 -97 17 -197 17 -757 0 -699 -5 -779 -61 -1058 -104 -522 -349 -839 -752 -976 -80 -28 -231 -60 -239 -52 -3 3 -9 78 -14 168 -18 334 -54 593 -165 1203 -87 475 -116 657 -143 887 -89 751 -26 1417 204 2163 24 77 49 153 55 169 l10 28 38 -28 c20 -15 71 -55 112 -88z m-876 -2349 l119 -82 -201 -3 c-110 -1 -294 -1 -408 0 l-208 3 204 141 205 141 85 -59 c47 -33 139 -96 204 -141z" id="path6" style="fill: rgb(255, 255, 255);"/>
    <path d="M5690 4895 c0 -339 3 -515 10 -515 6 0 164 77 351 171 l341 170 349 -170 c192 -94 353 -171 359 -171 7 0 10 171 10 515 0 283 -4 515 -8 515 -5 0 -166 -77 -358 -171 l-349 -171 -343 171 c-188 94 -347 171 -352 171 -7 0 -10 -180 -10 -515z" id="path8" style="fill: rgb(255, 255, 255);"/>
    <path d="M6354 3760 c-82 -18 -144 -101 -144 -194 0 -31 6 -69 14 -84 19 -36 65 -78 99 -91 43 -17 117 -13 162 8 73 34 105 86 105 170 0 121 -119 217 -236 191z" id="path10" style="fill: rgb(255, 255, 255);"/>
    <path d="M6315 2584 c-74 -38 -105 -89 -105 -172 0 -155 157 -246 287 -166 101 63 126 210 50 293 -51 56 -168 79 -232 45z" id="path12" style="fill: rgb(255, 255, 255);"/>
  </g>
</svg>