<?xml version="1.0" encoding="utf-8"?>
<svg viewBox="345.28 236.733 23.997 23.997" xmlns="http://www.w3.org/2000/svg">
  <path d="M1267 4707 l-1267 -412 0 -2147 0 -2148 300 0 300 0 0 1805 0 1805 1960 0 1960 0 0 -1805 0 -1805 300 0 300 0 0 2148 0 2147 -1272 413 c-700 227 -1282 412 -1293 412 -11 -1 -590 -186 -1288 -413z" style="fill: rgb(255, 255, 255);" transform="matrix(0.004687, 0, 0, -0.004687, 345.279999, 260.730133)"/>
  <path d="M900 3160 l0 -150 1660 0 1660 0 0 150 0 150 -1660 0 -1660 0 0 -150z" style="fill: rgb(255, 255, 255);" transform="matrix(0.004687, 0, 0, -0.004687, 345.279999, 260.730133)"/>
  <path d="M900 2560 l0 -150 1660 0 1660 0 0 150 0 150 -1660 0 -1660 0 0 -150z" style="fill: rgb(255, 255, 255);" transform="matrix(0.004687, 0, 0, -0.004687, 345.279999, 260.730133)"/>
  <path d="M900 1960 l0 -150 1660 0 1660 0 0 150 0 150 -1660 0 -1660 0 0 -150z" style="fill: rgb(255, 255, 255);" transform="matrix(0.004687, 0, 0, -0.004687, 345.279999, 260.730133)"/>
  <path d="M900 755 l0 -755 755 0 755 0 0 755 0 755 -755 0 -755 0 0 -755z" style="fill: rgb(255, 255, 255);" transform="matrix(0.004687, 0, 0, -0.004687, 345.279999, 260.730133)"/>
  <path d="M2710 755 l0 -755 755 0 755 0 0 755 0 755 -755 0 -755 0 0 -755z" style="fill: rgb(255, 255, 255);" transform="matrix(0.004687, 0, 0, -0.004687, 345.279999, 260.730133)"/>
</svg>